<svg xmlns="http://www.w3.org/2000/svg" viewBox="0 0 512 512" width="512" height="512">
  <style>
    path {
      fill: #8B5A2B;
    }
    @media (prefers-color-scheme: dark) {
      path {
        fill: #C28B51;
      }
    }
  </style>
  <path d="M452,140H428v-19c0-11.028-8.972-20-20-20H60c-11.028,0-20,8.972-20,20v212c0,61.92,45.532,113.334,104.919,122.527
    C164.768,464.596,188.529,472,216,472h48c86.019,0,156-69.981,156-156V140h12c33.084,0,60,26.916,60,60v40c0,33.084-26.916,60-60,60
    h-20v40h20c55.14,0,100-44.86,100-100v-40C532,184.86,507.14,140,452,140z M380,316c0,64.617-52.254,116.871-116.871,116.871
    H216c-20.471,0-39.498-5.522-56-15.077c-18.945-10.969-32.438-29.455-40-50.923H332c11.046,0,20-8.954,20-20s-8.954-20-20-20
    H112.105C112.035,325.262,112,323.639,112,322V161h268V316z"/>
  <path d="M216,252h48c11.046,0,20-8.954,20-20s-8.954-20-20-20h-48c-11.046,0-20,8.954-20,20S204.954,252,216,252z"/>
</svg> 