<svg xmlns="http://www.w3.org/2000/svg" width="200" height="200" viewBox="0 0 200 200">
  <style>
    .cloud { fill: #c4c9d6; }
    .cloud-inner { fill: #d8dbe6; }
    .wifi { fill: #4a6bdf; }
    .offline-line { stroke: #f44336; stroke-width: 8; stroke-linecap: round; }
  </style>
  
  <!-- Cloud -->
  <path class="cloud" d="M160,88c0-22.1-17.9-40-40-40c-14.5,0-27.2,7.7-34.2,19.2C82.1,65.8,78.1,65,74,65c-19.3,0-35,15.7-35,35c0,1.8,0.1,3.5,0.4,5.2C29.3,111.6,22,123.6,22,137c0,20.4,16.6,37,37,37h101c20.4,0,37-16.6,37-37C197,115.1,180.9,91.7,160,88z"/>
  <path class="cloud-inner" d="M140,75c-5.4,0-10.5,1.2-15.1,3.3C118.1,62.5,102,52,83,52c-19.3,0-35.7,11.7-42.8,28.3C28.5,83.2,20,93.5,20,106c0,16.6,13.4,30,30,30h90c16.6,0,30-13.4,30-30C170,88.4,156.6,75,140,75z"/>
  
  <!-- Wifi Icon (Disconnected) -->
  <path class="wifi" d="M100,130c4.4,0,8,3.6,8,8s-3.6,8-8,8s-8-3.6-8-8S95.6,130,100,130z"/>
  <path class="wifi" d="M100,110c13.8,0,26.4,5.6,35.4,14.6l-7.1,7.1c-7.2-7.2-17.1-11.7-28.3-11.7s-21.1,4.5-28.3,11.7l-7.1-7.1C73.6,115.6,86.2,110,100,110z"/>
  <path class="wifi" d="M100,90c20.8,0,39.8,8.5,53.5,22.2l-7.1,7.1C134.2,107.1,118,100,100,100s-34.2,7.1-46.4,19.3l-7.1-7.1C60.2,98.5,79.2,90,100,90z"/>
  
  <!-- Red diagonal line for "offline" -->
  <line class="offline-line" x1="40" y1="40" x2="160" y2="160" />
</svg> 