<svg width="1440" height="1024" viewBox="0 0 1440 1024" fill="none" xmlns="http://www.w3.org/2000/svg">
  <g opacity="0.15">
    <path d="M-53 150.5C91.5 240 323.5 143 358 80.5C392.5 18 526 -70.5 641 80.5C756 231.5 886 191 924.5 148C963 105 1099.5 -7 1189 80.5C1278.5 168 1395 225.5 1450.5 148" stroke="#4A89DC" stroke-width="2"/>
    <path d="M-53 307.5C91.5 397 323.5 300 358 237.5C392.5 175 526 86.5 641 237.5C756 388.5 886 348 924.5 305C963 262 1099.5 150 1189 237.5C1278.5 325 1395 382.5 1450.5 305" stroke="#4A89DC" stroke-width="2"/>
    <path d="M-53 464.5C91.5 554 323.5 457 358 394.5C392.5 332 526 243.5 641 394.5C756 545.5 886 505 924.5 462C963 419 1099.5 307 1189 394.5C1278.5 482 1395 539.5 1450.5 462" stroke="#4A89DC" stroke-width="2"/>
    <path d="M-53 621.5C91.5 711 323.5 614 358 551.5C392.5 489 526 400.5 641 551.5C756 702.5 886 662 924.5 619C963 576 1099.5 464 1189 551.5C1278.5 639 1395 696.5 1450.5 619" stroke="#4A89DC" stroke-width="2"/>
    <path d="M-53 778.5C91.5 868 323.5 771 358 708.5C392.5 646 526 557.5 641 708.5C756 859.5 886 819 924.5 776C963 733 1099.5 621 1189 708.5C1278.5 796 1395 853.5 1450.5 776" stroke="#4A89DC" stroke-width="2"/>
    <path d="M-53 935.5C91.5 1025 323.5 928 358 865.5C392.5 803 526 714.5 641 865.5C756 1016.5 886 976 924.5 933C963 890 1099.5 778 1189 865.5C1278.5 953 1395 1010.5 1450.5 933" stroke="#4A89DC" stroke-width="2"/>
    <circle cx="232" cy="200" r="3" fill="#4A89DC"/>
    <circle cx="432" cy="300" r="3" fill="#4A89DC"/>
    <circle cx="632" cy="150" r="3" fill="#4A89DC"/>
    <circle cx="832" cy="250" r="3" fill="#4A89DC"/>
    <circle cx="1032" cy="175" r="3" fill="#4A89DC"/>
    <circle cx="1232" cy="350" r="3" fill="#4A89DC"/>
    <circle cx="232" cy="450" r="3" fill="#4A89DC"/>
    <circle cx="432" cy="550" r="3" fill="#4A89DC"/>
    <circle cx="632" cy="400" r="3" fill="#4A89DC"/>
    <circle cx="832" cy="500" r="3" fill="#4A89DC"/>
    <circle cx="1032" cy="425" r="3" fill="#4A89DC"/>
    <circle cx="1232" cy="600" r="3" fill="#4A89DC"/>
    <circle cx="232" cy="700" r="3" fill="#4A89DC"/>
    <circle cx="432" cy="800" r="3" fill="#4A89DC"/>
    <circle cx="632" cy="650" r="3" fill="#4A89DC"/>
    <circle cx="832" cy="750" r="3" fill="#4A89DC"/>
    <circle cx="1032" cy="675" r="3" fill="#4A89DC"/>
    <circle cx="1232" cy="850" r="3" fill="#4A89DC"/>
  </g>
</svg> 